<svg width="186" height="48" viewBox="0 0 186 48" fill="none" xmlns="http://www.w3.org/2000/svg">
<g clip-path="url(#clip0_2_962)">
<path d="M15.8245 19.0392C16.5367 12.5938 22.045 7.55974 28.6928 7.55974C35.3881 7.55974 40.8963 12.5938 41.6086 19.0392H48.7788C48.0665 8.68887 39.3294 0.502686 28.6928 0.502686C18.1037 0.502686 9.36657 8.68887 8.6543 19.0392H15.8245Z" fill="white"/>
<path d="M41.6086 21.8149C40.8963 28.2604 35.3881 33.2944 28.6928 33.2944C21.9975 33.2944 16.4893 28.2604 15.777 21.8149H8.6543C9.36657 31.9301 17.7713 40.0221 28.0755 40.3515C28.2654 40.3515 28.4554 40.3515 28.6928 40.3515H29.2626V43.5036H29.3101C39.6617 43.2213 48.114 32.2594 48.7788 21.8149H41.6086Z" fill="white"/>
<path d="M49.2531 10.1474H40.6109C39.5188 10.1474 38.6641 9.30056 38.6641 8.21848C38.6641 7.1364 39.5188 6.28955 40.6109 6.28955H49.2056C50.2978 6.28955 51.1525 7.1364 51.1525 8.21848C51.1525 9.30056 50.2978 10.1474 49.2531 10.1474Z" fill="#E6BD2C"/>
<path d="M16.2525 33.4829H7.65781C6.56566 33.4829 5.71094 32.636 5.71094 31.5539C5.71094 30.4718 6.56566 29.625 7.65781 29.625H16.2525C17.3447 29.625 18.1994 30.4718 18.1994 31.5539C18.1994 32.636 17.3447 33.4829 16.2525 33.4829Z" fill="#E6BD2C"/>
<path d="M2.48142 33.4828C3.53042 33.4828 4.3808 32.6402 4.3808 31.6009C4.3808 30.5615 3.53042 29.719 2.48142 29.719C1.43241 29.719 0.582031 30.5615 0.582031 31.6009C0.582031 32.6402 1.43241 33.4828 2.48142 33.4828Z" fill="#E6BD2C"/>
<path d="M67.4882 37.858C65.7788 37.1523 64.4492 36.1172 63.547 34.7999C62.6448 33.4826 62.1699 31.93 62.1699 30.1893V28.872C62.1699 28.5897 62.3124 28.4015 62.6448 28.4015H65.9687C66.2536 28.4015 66.4435 28.5426 66.4435 28.872V29.9541C66.4435 31.5066 67.1083 32.7298 68.4379 33.7178C69.7675 34.7058 71.6194 35.2233 73.9461 35.2233C76.0354 35.2233 77.6024 34.7999 78.6471 33.906C79.6917 33.0592 80.2141 31.883 80.2141 30.4716C80.2141 29.5306 79.9292 28.7308 79.4068 28.0722C78.8845 27.4135 78.0773 26.8019 77.0326 26.2373C75.9879 25.6728 74.4684 25.0141 72.4741 24.2143C70.2423 23.3675 68.5329 22.6147 67.2508 21.909C65.9687 21.2033 64.8765 20.3094 64.0693 19.1803C63.2146 18.0512 62.7872 16.6397 62.7872 14.9461C62.7872 12.3585 63.7369 10.3354 65.5888 8.87698C67.4407 7.41852 69.9574 6.66577 73.1389 6.66577C75.3706 6.66577 77.365 7.04215 79.027 7.7949C80.7364 8.54765 82.0185 9.58269 82.9682 10.9471C83.8704 12.3114 84.3452 13.864 84.3452 15.6047V16.4986C84.3452 16.7809 84.2028 16.9691 83.8704 16.9691H80.4515C80.1666 16.9691 79.9766 16.8279 79.9766 16.4986V15.8399C79.9766 14.2874 79.3593 12.9701 78.0773 11.935C76.8427 10.9 75.0857 10.3825 72.9014 10.3825C71.0021 10.3825 69.5775 10.7589 68.5329 11.5116C67.4882 12.2644 66.9659 13.3935 66.9659 14.8049C66.9659 15.7929 67.2033 16.5927 67.7256 17.2514C68.2479 17.863 69.0077 18.4275 70.0049 18.9451C71.0021 19.4626 72.5691 20.0742 74.6584 20.874C76.7952 21.7208 78.5521 22.4736 79.8817 23.1793C81.2112 23.885 82.3034 24.8259 83.2056 25.9551C84.0603 27.1312 84.5352 28.5426 84.5352 30.2363C84.5352 32.871 83.538 34.9881 81.5911 36.4936C79.6443 38.0462 76.9376 38.7989 73.5187 38.7989C71.2395 38.94 69.1976 38.5637 67.4882 37.858Z" fill="white"/>
<path d="M108.277 28.4014C108.277 28.6837 108.135 28.8719 107.802 28.8719H93.3196C93.1772 28.8719 93.1297 28.9189 93.1297 29.0601C93.1297 30.0951 93.2247 30.8479 93.4146 31.4124C93.747 32.6356 94.4118 33.5295 95.4564 34.2352C96.4536 34.8939 97.7357 35.2703 99.3027 35.2703C101.534 35.2703 103.291 34.3764 104.479 32.5416C104.621 32.2593 104.811 32.2122 105.048 32.4004L107.66 34.0941C107.85 34.2823 107.897 34.4705 107.802 34.6587C106.948 36.023 105.761 37.0581 104.194 37.8579C102.627 38.6577 100.87 39.034 98.9228 39.034C96.691 39.034 94.8391 38.5636 93.3196 37.5756C91.8001 36.6346 90.6605 35.2703 89.9007 33.4825C89.1885 31.6947 88.8086 29.5776 88.8086 27.037C88.8086 24.8258 88.951 23.1792 89.3309 22.0501C89.8533 19.98 90.9454 18.3333 92.6074 17.1572C94.2218 15.981 96.2162 15.3694 98.5429 15.3694C101.582 15.3694 103.909 16.1221 105.381 17.6276C106.9 19.1331 107.802 21.3914 108.135 24.3083C108.277 25.4845 108.325 26.8959 108.277 28.4014ZM95.314 20.027C94.4593 20.6857 93.8894 21.5325 93.6045 22.6146C93.4146 23.2733 93.2721 24.1201 93.1772 25.1552C93.1772 25.2963 93.2247 25.3434 93.3671 25.3434H103.766C103.909 25.3434 103.956 25.2963 103.956 25.1552C103.909 24.1672 103.814 23.4144 103.671 22.944C103.386 21.7678 102.769 20.8268 101.867 20.1211C100.965 19.4154 99.8725 19.0861 98.5429 19.0861C97.2134 19.0391 96.1687 19.3684 95.314 20.027Z" fill="white"/>
<path d="M113.357 38.1402V7.55958C113.357 7.2773 113.5 7.08911 113.832 7.08911H117.299C117.584 7.08911 117.773 7.23025 117.773 7.55958V38.1402C117.773 38.4224 117.631 38.6106 117.299 38.6106H113.832C113.5 38.5636 113.357 38.4224 113.357 38.1402Z" fill="white"/>
<path d="M129.076 38.2344L121.669 16.1694L121.621 15.9812C121.621 15.793 121.764 15.6519 122.048 15.6519H125.847C126.132 15.6519 126.322 15.793 126.37 16.0282L131.355 32.3065C131.403 32.3536 131.45 32.4006 131.498 32.4006C131.545 32.4006 131.593 32.3536 131.64 32.3065L136.626 16.0282C136.721 15.793 136.911 15.6519 137.149 15.6519L140.947 15.6989C141.28 15.6989 141.422 15.8871 141.327 16.2164L134.015 38.2344C133.92 38.4697 133.73 38.6108 133.492 38.6108H129.693C129.361 38.5638 129.171 38.4697 129.076 38.2344Z" fill="white"/>
<path d="M147.973 37.2464C146.311 36.1172 145.124 34.5647 144.46 32.5417C143.937 30.9421 143.652 29.1072 143.652 27.0372C143.652 24.92 143.89 23.0852 144.412 21.6267C145.077 19.6508 146.264 18.0982 147.926 16.9691C149.588 15.84 151.582 15.2754 153.862 15.2754C156.046 15.2754 157.945 15.84 159.56 16.9691C161.174 18.0982 162.314 19.6508 163.026 21.5797C163.548 23.1322 163.833 24.92 163.833 26.9901C163.833 29.1072 163.548 30.9421 163.026 32.5417C162.361 34.5647 161.222 36.1172 159.56 37.2464C157.945 38.3755 155.998 38.94 153.814 38.94C151.582 38.94 149.635 38.3755 147.973 37.2464ZM156.996 34.1883C157.898 33.5296 158.563 32.5417 158.942 31.3184C159.275 30.1893 159.465 28.7779 159.465 27.0842C159.465 25.3905 159.322 24.0261 158.99 22.897C158.61 21.6738 157.945 20.7328 157.043 20.0271C156.141 19.3214 155.049 18.9921 153.719 18.9921C152.484 18.9921 151.392 19.3214 150.49 20.0271C149.588 20.7328 148.923 21.6738 148.543 22.897C148.211 23.932 148.021 25.3435 148.021 27.0842C148.021 28.8249 148.163 30.2363 148.543 31.3184C148.923 32.5417 149.54 33.4826 150.49 34.1883C151.392 34.847 152.532 35.2233 153.814 35.2233C155.049 35.1763 156.093 34.847 156.996 34.1883Z" fill="white"/>
<path d="M167.111 47.0793V44.4446C167.111 44.1624 167.253 43.9742 167.586 43.9742H167.681C168.868 43.9271 169.865 43.786 170.53 43.5037C171.242 43.2214 171.812 42.751 172.239 41.9982C172.714 41.2454 173.141 40.1634 173.569 38.7049C173.616 38.6579 173.616 38.5638 173.569 38.4226L165.971 16.1694L165.924 15.9812C165.924 15.793 166.066 15.6519 166.351 15.6519H170.007C170.292 15.6519 170.482 15.793 170.53 16.0282L175.658 32.9652C175.706 33.0122 175.753 33.0593 175.801 33.0593C175.848 33.0593 175.896 33.0122 175.943 32.9652L181.024 16.0282C181.119 15.793 181.309 15.6519 181.546 15.6519H185.155C185.487 15.6519 185.63 15.84 185.535 16.1694L177.273 40.1634C176.56 42.2334 175.896 43.786 175.183 44.774C174.471 45.762 173.569 46.4677 172.477 46.8911C171.337 47.3145 169.77 47.5027 167.776 47.5027H167.443C167.206 47.5027 167.111 47.3616 167.111 47.0793Z" fill="white"/>
</g>
<defs>
<clipPath id="clip0_2_962">
<rect width="185" height="47" fill="white" transform="translate(0.582031 0.502686)"/>
</clipPath>
</defs>
</svg>
